<?xml version="1.0" encoding="utf-8"?>
<!-- Generator: Adobe Illustrator 21.0.0, SVG Export Plug-In . SVG Version: 6.00 Build 0)  -->
<svg version="1.1" id="Layer_1" xmlns="http://www.w3.org/2000/svg" xmlns:xlink="http://www.w3.org/1999/xlink" x="0px" y="0px"
	 viewBox="0 0 86 117" style="enable-background:new 0 0 86 117;" xml:space="preserve">
<style type="text/css">
	.st0{fill:#363636;}
</style>
<path class="st0" d="M82.8,4H3.3C1.6,4,0.1,5.4,0.1,7.2v46.4c0,1.8,1.4,3.2,3.2,3.2h79.5c1.8,0,3.2-1.4,3.2-3.2V7.2
	C86,5.4,84.6,4,82.8,4z M8.4,37.2H8.2C6.4,37.2,5,35.8,5,34v-7.3c0-1.8,1.4-3.2,3.2-3.2h0.2V37.2z M69.6,52.4H13.3v-44h56.3V52.4z
	 M78.4,34.6c-2.3,0-4.1-1.9-4.1-4.1s1.9-4.1,4.1-4.1c2.3,0,4.1,1.9,4.1,4.1S80.7,34.6,78.4,34.6z M31.5,0h23.2v2.8H31.5V0z
	 M46.6,64.9v-3h8v-2.8H31.5v2.8h8v35.2c-2.1,0.9-3.6,3.1-3.6,5.6V117h14.3v-14.3c0-2.5-1.5-4.6-3.6-5.6v-28h4.8l5.1,1.2v-6.7
	l-5.1,1.2H46.6z"/>
</svg>
