<?xml version="1.0" encoding="utf-8"?>
<!-- Generator: Adobe Illustrator 21.0.0, SVG Export Plug-In . SVG Version: 6.00 Build 0)  -->
<svg version="1.1" id="Layer_1" xmlns="http://www.w3.org/2000/svg" xmlns:xlink="http://www.w3.org/1999/xlink" x="0px" y="0px"
	 viewBox="0 0 71 87" style="enable-background:new 0 0 71 87;" xml:space="preserve">
<style type="text/css">
	.st0{fill:#363636;}
</style>
<path class="st0" d="M53.3,1.5C53.3,0.8,52.8,0,52,0h-43C8.3,0,7.7,0.8,7.7,1.5V5h45.7L53.3,1.5L53.3,1.5z M54.2,81.8h-9.6V71.4h-7
	v2.5H18.8c-0.5-1.3-1.8-2.1-3.2-2.1h-12c-1.9,0-3.6,1.6-3.6,3.5v3c0,1.9,1.6,3.5,3.6,3.5h12c1.5,0,2.8-0.9,3.3-2.3h18.8v2.3h-9.5
	c-0.5,0-1,0.4-1,1V86c0,0.5,0.5,1,1,1h26.1c0.5,0,0.9-0.5,0.9-1v-3.2C55.1,82.2,54.7,81.8,54.2,81.8z M60.7,12.4
	c-0.9-2.9-3.6-5.1-6.8-5.1H7.1c-3.9,0-7.1,3.1-7.1,7v46.9c0,3.9,3.3,7.1,7.1,7.1h46.7c3.9,0,7.1-3.2,7.1-7.1V50.9
	c6.1-4.2,10-11.2,10-19.2C71,23.7,66.9,16.6,60.7,12.4z M12.2,62.2c-3.3,0-5.9-2.7-5.9-5.9c0-3.3,2.6-5.9,5.9-5.9s5.9,2.7,5.9,5.9
	C18.1,59.5,15.5,62.2,12.2,62.2z M18.2,29.5c0,0.8-0.6,1.4-1.4,1.4H7.8c-0.8,0-1.4-0.6-1.4-1.4V15.4c0-0.8,0.6-1.4,1.4-1.4h8.9
	c0.8,0,1.4,0.6,1.4,1.4L18.2,29.5L18.2,29.5z M47.8,51.9c-11.1,0-20.1-9-20.1-20.1s9-20.1,20.1-20.1s20.1,9,20.1,20.1
	S58.8,51.9,47.8,51.9z M47.8,19.5C54.5,19.5,60,25,60,31.7S54.5,44,47.8,44s-12.2-5.5-12.2-12.2S41,19.5,47.8,19.5z M31.6,30.3
	c0.8,0,1.4,0.6,1.4,1.4c0,0.8-0.6,1.4-1.4,1.4c-0.8,0-1.4-0.6-1.4-1.4C30.1,30.9,30.8,30.3,31.6,30.3z M64,30.3
	c0.8,0,1.4,0.6,1.4,1.4c0,0.8-0.6,1.4-1.4,1.4s-1.4-0.6-1.4-1.4C62.5,30.9,63.2,30.3,64,30.3z M39.1,16.6c0.8,0,1.4,0.6,1.4,1.4
	s-0.6,1.4-1.4,1.4s-1.4-0.6-1.4-1.4S38.3,16.6,39.1,16.6z M56.4,44c0.8,0,1.4,0.6,1.4,1.4s-0.6,1.4-1.4,1.4S55,46.3,55,45.5
	S55.6,44,56.4,44z M55.7,16.1c0.8,0,1.4,0.6,1.4,1.4S56.5,19,55.7,19s-1.4-0.6-1.4-1.4S54.9,16.1,55.7,16.1z M39.8,44.5
	c0.8,0,1.4,0.6,1.4,1.4s-0.6,1.4-1.4,1.4s-1.4-0.6-1.4-1.4S39,44.5,39.8,44.5z"/>
</svg>
