<?xml version="1.0" encoding="utf-8"?>
<!-- Generator: Adobe Illustrator 21.0.0, SVG Export Plug-In . SVG Version: 6.00 Build 0)  -->
<svg version="1.1" id="Layer_1" xmlns="http://www.w3.org/2000/svg" xmlns:xlink="http://www.w3.org/1999/xlink" x="0px" y="0px"
	 viewBox="0 0 97 55" style="enable-background:new 0 0 97 55;" xml:space="preserve">
<style type="text/css">
	.st0{fill:#363636;}
</style>
<path class="st0" d="M84.1,32.6V20c0-1.3,1-2.4,2.3-2.4l8.3,1.6V11c0-2.4-1.7-3.4-4.2-4.3L67.4,0.2c1.6,1.4,1.9,2,1.9,4.4v45.2
	c0,2.4-0.4,4.1-2,5.2l23.3-7.1c2.4-0.8,4.2-4.2,4.2-6.6v-7.9L86.5,35C85.2,35,84.1,33.9,84.1,32.6z M95.1,21l-7.6-1.4
	c-1,0-1.8,0.8-1.8,1.9v9.9c0,1,0.8,1.9,1.8,1.9l7.6-1.4c1.2-0.4,1.8-0.8,1.8-1.9v-7C97,21.8,96.2,21.3,95.1,21z M67.2,4.5
	c0-5.1-4.2-4.5-4.2-4.5S5.8,4.7,2.8,5.1S0,9.5,0,9.5s0,32.5,0,36.3s2.6,3.8,2.6,3.8L19.1,51l8.1-11.7c0,0,1.1-1.8,2.5-1.8
	c1.4,0,2.4,1.9,2.4,1.9l9.1,13.5c0,0,18.9,1.9,22.5,1.9c3.6,0,3.4-5,3.4-5S67.2,9.6,67.2,4.5z M13,37.2c-3.7,0-6.7-4.6-6.7-10.3
	s3-10.3,6.7-10.3s6.7,4.6,6.7,10.3S16.7,37.2,13,37.2z M49.1,38.6c-4.7,0-8.4-5.2-8.4-11.7c0-6.5,3.8-11.7,8.4-11.7
	c4.7,0,8.4,5.2,8.4,11.7C57.6,33.4,53.8,38.6,49.1,38.6z"/>
</svg>
