<?xml version="1.0" encoding="utf-8"?>
<!-- Generator: Adobe Illustrator 21.0.0, SVG Export Plug-In . SVG Version: 6.00 Build 0)  -->
<svg version="1.1" id="Слой_1" xmlns="http://www.w3.org/2000/svg" xmlns:xlink="http://www.w3.org/1999/xlink" x="0px" y="0px"
	 viewBox="0 0 198 131" style="enable-background:new 0 0 198 131;" xml:space="preserve">
<style type="text/css">
	.st0{fill:none;enable-background:new    ;}
</style>
<path id="_02" transform="translate(203.552 128.485) scale(5.008)" class="st0" d="M92.7,113.2c-9,11.9-21.5,17.8-37.5,17.8
	c-16,0-28.5-5.9-37.5-17.8c-9-11.9-13.5-27.7-13.5-47.4c0-19.7,4.5-35.5,13.5-47.4c9-11.9,21.5-17.8,37.5-17.8
	c16,0,28.5,5.9,37.5,17.8c9,11.9,13.5,27.7,13.5,47.4C106.3,85.5,101.7,101.3,92.7,113.2z M32.8,65.8c0,24.8,7.5,37.3,22.4,37.3
	c14.9,0,22.4-12.4,22.4-37.3c0-24.8-7.5-37.3-22.4-37.3C40.2,28.5,32.8,40.9,32.8,65.8z M112,128.5v-20.8L154.1,64
	c8.5-8.7,12.7-16.1,12.7-22.2c0-3.9-1.2-7.1-3.6-9.6c-2.4-2.4-5.7-3.7-9.9-3.7c-8.4,0-14.5,4.5-18.5,13.6L110.7,28
	c3.8-9,9.6-15.8,17.2-20.4c7.6-4.7,16-7,25.1-7c11.7,0,21.7,3.6,30,10.8c8.3,7.2,12.5,16.9,12.5,29.1c0,13.3-6.5,26.4-19.5,39.4
	l-20.8,21h42.1v27.6H112z"/>
</svg>
