<?xml version="1.0" encoding="utf-8"?>
<!-- Generator: Adobe Illustrator 21.0.0, SVG Export Plug-In . SVG Version: 6.00 Build 0)  -->
<svg version="1.1" id="Слой_1" xmlns="http://www.w3.org/2000/svg" xmlns:xlink="http://www.w3.org/1999/xlink" x="0px" y="0px"
	 viewBox="0 0 201 131" style="enable-background:new 0 0 201 131;" xml:space="preserve">
<style type="text/css">
	.st0{fill:none;enable-background:new    ;}
</style>
<path id="_03" transform="translate(205.552 128.485) scale(5.008)" class="st0" d="M93.5,113.2c-9,11.9-21.5,17.8-37.5,17.8
	c-16,0-28.5-5.9-37.5-17.8c-9-11.9-13.5-27.7-13.5-47.4c0-19.7,4.5-35.5,13.5-47.4c9-11.9,21.5-17.8,37.5-17.8
	c16,0,28.5,5.9,37.5,17.8c9,11.9,13.5,27.7,13.5,47.4C107,85.5,102.5,101.3,93.5,113.2z M33.5,65.8c0,24.8,7.5,37.3,22.4,37.3
	c14.9,0,22.4-12.4,22.4-37.3c0-24.8-7.5-37.3-22.4-37.3C41,28.5,33.5,40.9,33.5,65.8z M173.5,53.9c8,2.7,14.5,7.2,19.4,13.4
	c4.9,6.2,7.3,13.4,7.3,21.8c0,13.1-4.4,23.4-13.3,30.8c-8.8,7.4-19.7,11.1-32.4,11.1c-9.9,0-18.8-2.3-26.6-6.8
	c-7.8-4.5-13.6-11.2-17.3-20.1l24.7-14.3c3.1,8.8,9.5,13.3,19.2,13.3c5.6,0,9.9-1.3,12.7-3.9c2.9-2.6,4.3-6,4.3-10
	c0-4.1-1.4-7.4-4.3-10c-2.9-2.6-7.1-3.9-12.7-3.9h-5.9l-10.9-16.3l22.8-28.9h-45.9V3h80.6v23.3L173.5,53.9z"/>
</svg>
