<?xml version="1.0" encoding="utf-8"?>
<!-- Generator: Adobe Illustrator 21.0.0, SVG Export Plug-In . SVG Version: 6.00 Build 0)  -->
<svg version="1.1" id="Layer_1" xmlns="http://www.w3.org/2000/svg" xmlns:xlink="http://www.w3.org/1999/xlink" x="0px" y="0px"
	 viewBox="0 0 136 164" style="enable-background:new 0 0 136 164;" xml:space="preserve">
<style type="text/css">
	.st0{fill:#FFFFFF;}
	.st1{fill:#3A3A3A;}
	.st2{fill:#F0C42E;}
</style>
<path class="st0" d="M93.1,38.8c8.1,0,14.9-5.5,16.9-13l5.5,0.8c0.1,0,0.2,0,0.3,0c1.1,0,2-0.8,2.1-1.8c0.2-1.2-0.6-2.3-1.8-2.5
	l-5.5-0.8c0,0,0-0.1,0-0.1c0-0.2,0-0.4,0-0.5c0,0-0.5-6.5-1.1-9.2c-0.6-2.7-2.5-3.3-2.5-3.3C97.2,6,87.2,5.8,84.6,5.8
	s-3.2,1.3-3.2,1.3l-3.2,5l0,0c-0.1,0.1-0.1,0.2-0.2,0.4l0,0l0,0c-1.5,2.6-2.4,5.6-2.4,8.8C75.7,30.9,83.5,38.8,93.1,38.8z
	 M131.5,78.1L131.5,78.1l-26.7-2.2l-9.2-21.1c0,0-0.5-2.8-6-8.5c-5.5-5.7-16.8-3.4-16.8-3.4S48.9,47.4,41,49.2
	c-7.9,1.8-8.2,9.9-8.2,9.9l-0.6,4.5L17,60.7c-0.2,0-0.4-0.1-0.6-0.1c-1.4,0-2.7,1-2.9,2.4l-7.4,38.2c-0.3,1.6,0.8,3.2,2.4,3.5
	l51.2,9.9c0.1,0,0.2,0,0.3,0c0,0,0,0,0,0c-0.7,0.1-1.3,0-1.3,0l-9.4-1.8L46.2,130l-23.6,20.4c-1.7,1.4-2.8,3.5-2.8,5.8
	c0,4.1,3.3,7.4,7.4,7.4c2,0,3.9-0.8,5.2-2.1c0,0,27.7-22.1,29.6-23.6c1.8-1.5,2.8-3.9,2.8-3.9s4.5-13.9,5.8-16.9
	c0.8-2,4.9-1.1,4.9-1.1l22.9,8.6l7.6,29.1c0.1,0.6,0.2,1.2,0.5,1.8h0c1.1,2.7,3.8,4.7,6.9,4.7c4.1,0,7.4-3.3,7.4-7.4
	c0-0.6-0.1-1.2-0.2-1.7c-0.8-5-4.6-27-5.6-31.8c-1.1-5.4-4.6-6.9-4.6-6.9s-21.3-11.6-22.7-12.3c-1.4-0.8-1.1-2.8-1.1-2.8l3.9-14.3
	l2.8,5.9c0,0,1.6,3.3,4.1,3.4l33.4,0.8c4.1,0,7.4-3.3,7.4-7.4C138.3,81.6,135.3,78.4,131.5,78.1z M60.1,62.8l-1.8,5.9l9.9,1.9
	L48,66.7l0.5-2.5L60.1,62.8z M57.9,108.3l-45.3-8.8l6.3-32.4l12.5,2.4l-1.6,11.6l-0.6,4.4c0,0,0,0.1,0,0.1l0,0.1h0
	c0,0.3-0.1,0.6-0.1,1c0,4.1,3.3,7.4,7.4,7.4s7.4-3.3,7.4-7.4c0-0.3,0-0.6-0.1-0.9l2.9-13.2l17.4,3.4L57.9,108.3z M25,17h38
	c1.1,0,2-0.9,2-2s-0.9-2-2-2H25c-1.1,0-2,0.9-2,2S24,17,25,17z M38.1,23c-1.1,0-2,0.9-2,2s0.9,2,2,2h23c1.1,0,2-0.9,2-2
	c0-1.1-0.9-2-2-2H38.1z"/>
<path class="st1" d="M87.1,32.7c8.1,0,14.9-5.5,16.9-13l5.5,0.8c0.1,0,0.2,0,0.3,0c1.1,0,2-0.8,2.1-1.8c0.2-1.2-0.6-2.3-1.8-2.5
	l-5.5-0.8c0,0,0-0.1,0-0.1c0-0.2,0-0.4,0-0.5c0,0-0.5-6.5-1.1-9.2c-0.6-2.7-2.5-3.3-2.5-3.3C91.2,0,81.2-0.2,78.6-0.2
	s-3.2,1.3-3.2,1.3l-3.2,5l0,0c-0.1,0.1-0.1,0.2-0.2,0.4l0,0l0,0c-1.5,2.6-2.4,5.6-2.4,8.8C69.6,24.9,77.5,32.7,87.1,32.7z M125.5,72
	L125.5,72l-26.7-2.2l-9.2-21.1c0,0-0.5-2.8-6-8.5c-5.5-5.7-16.8-3.4-16.8-3.4S42.8,41.4,35,43.2c-7.9,1.8-8.2,9.9-8.2,9.9l-3.1,22
	l-0.6,4.4c0,0,0,0.1,0,0.1l0,0.1h0c0,0.3-0.1,0.6-0.1,1c0,4.1,3.3,7.4,7.4,7.4s7.4-3.3,7.4-7.4c0-0.3,0-0.6-0.1-0.9l4.7-21.6
	l11.6-1.4l-1.8,5.9l9.9,1.9c1.6,0.3,2.7,1.9,2.4,3.5l-7.4,38.2c-0.3,1.4-1.5,2.4-2.9,2.4c-0.1,0-0.1,0-0.2,0c-0.7,0.1-1.3,0-1.3,0
	l-9.4-1.8L40.2,124l-23.6,20.4c-1.7,1.4-2.8,3.5-2.8,5.8c0,4.1,3.3,7.4,7.4,7.4c2,0,3.9-0.8,5.2-2.1c0,0,27.7-22.1,29.6-23.6
	c1.8-1.5,2.8-3.9,2.8-3.9s4.5-13.9,5.8-16.9c0.8-2,4.9-1.1,4.9-1.1l22.9,8.6l7.6,29.1c0.1,0.6,0.2,1.2,0.5,1.8h0
	c1.1,2.7,3.8,4.7,6.9,4.7c4.1,0,7.4-3.3,7.4-7.4c0-0.6-0.1-1.2-0.2-1.7c-0.8-5-4.6-27-5.6-31.8c-1.1-5.4-4.6-6.9-4.6-6.9
	S83.2,94.7,81.8,93.9c-1.4-0.8-1.1-2.8-1.1-2.8l3.9-14.3l2.8,5.9c0,0,1.6,3.3,4.1,3.4l33.4,0.8c4.1,0,7.4-3.3,7.4-7.4
	C132.3,75.6,129.3,72.4,125.5,72z"/>
<path class="st2" d="M54,108.7C54,108.7,54,108.7,54,108.7c0.1,0,0.1,0,0.2,0c1.4,0,2.7-1,2.9-2.4l7.4-38.2c0.3-1.6-0.8-3.2-2.4-3.5
	L42,60.7l-1.3,5.9l17.4,3.4l-6.3,32.4L6.5,93.5l6.3-32.4l12.5,2.4l0.8-6L11,54.7c-0.2,0-0.4-0.1-0.6-0.1c-1.4,0-2.7,1-2.9,2.4
	L0.1,95.3c-0.3,1.6,0.8,3.2,2.4,3.5l51.2,9.9C53.7,108.7,53.9,108.7,54,108.7z M59,9c0,1.1-0.9,2-2,2H19c-1.1,0-2-0.9-2-2s0.9-2,2-2
	h38C58.1,7,59,7.9,59,9z M57,19c0,1.1-0.9,2-2,2H32c-1.1,0-2-0.9-2-2c0-1.1,0.9-2,2-2h23C56.1,17,57,17.9,57,19z"/>
</svg>
