<?xml version="1.0" encoding="utf-8"?>
<!-- Generator: Adobe Illustrator 21.0.0, SVG Export Plug-In . SVG Version: 6.00 Build 0)  -->
<svg version="1.1" id="Слой_1" xmlns="http://www.w3.org/2000/svg" xmlns:xlink="http://www.w3.org/1999/xlink" x="0px" y="0px"
	 viewBox="0 0 166 131" style="enable-background:new 0 0 166 131;" xml:space="preserve">
<style type="text/css">
	.st0{fill:none;enable-background:new    ;}
</style>
<path id="_01" transform="translate(177.552 128.485) scale(5.008)" class="st0" d="M90,113.2C81,125.1,68.5,131,52.5,131
	c-16,0-28.5-5.9-37.5-17.8c-9-11.9-13.5-27.7-13.5-47.4c0-19.7,4.5-35.5,13.5-47.4C24,6.5,36.5,0.5,52.5,0.5
	c16,0,28.5,5.9,37.5,17.8c9,11.9,13.5,27.7,13.5,47.4C103.5,85.5,99,101.3,90,113.2z M30.1,65.8c0,24.8,7.5,37.3,22.4,37.3
	c14.9,0,22.4-12.4,22.4-37.3c0-24.8-7.5-37.3-22.4-37.3C37.5,28.5,30.1,40.9,30.1,65.8z M139.9,3H165v125.4h-28.7V33.3l-22.2,6.1
	l-7-24.5L139.9,3z"/>
</svg>
