<?xml version="1.0" encoding="utf-8"?>
<!-- Generator: Adobe Illustrator 21.0.0, SVG Export Plug-In . SVG Version: 6.00 Build 0)  -->
<svg version="1.1" id="Layer_1" xmlns="http://www.w3.org/2000/svg" xmlns:xlink="http://www.w3.org/1999/xlink" x="0px" y="0px"
	 viewBox="0 0 156 188" style="enable-background:new 0 0 156 188;" xml:space="preserve">
<style type="text/css">
	.st0{fill:#FFFFFF;}
	.st1{fill:#F0C42E;}
	.st2{fill:#3A3A3A;}
</style>
<path class="st0" d="M141.3,54.1c8.1,0,14.8,6.6,14.8,14.8s-6.6,14.8-14.8,14.8s-14.8-6.6-14.8-14.8S133.1,54.1,141.3,54.1z
	 M89.1,139.5L82,157.4l-22.8,14.9c-2.2,1.2-3.6,3.6-3.6,6.2c0,4,3.2,7.2,7.2,7.2c1.5,0,3-0.5,4.1-1.3c3.8-2.4,22.4-14.1,25.5-15.9
	c3.5-2,4.1-5.1,4.1-5.1l4.9-16c0,0,0,0-5.8-2.6S89.1,139.5,89.1,139.5z M139.3,141.5c0,0-1.2-3.8-4.6-5.2s-18.1-7.8-18.1-7.8
	l15.4-25.6c0,0,3.8-9-0.3-13.4S118,79.8,118,79.8h-7.5L126.3,53c3.4-5.7,1.4-13.1-4.2-16.4L72.6,7.4C66.9,4.1,59.6,6,56.2,11.7
	L9.1,91.5c-3.4,5.7-1.4,13.1,4.2,16.4l49.4,29.1c5.7,3.4,13.1,1.4,16.4-4.2l22.9-38.9h8.1l-14.8,26.2c0,0-5.1,9.2-0.3,14.3
	c4.2,4.4,12.7,6.9,12.7,6.9l17.3,6.5l5.1,31.3l0,0c0.5,3.4,3.5,6,7.1,6c4,0,7.2-3.2,7.2-7.2c0-0.2,0-0.4,0-0.6l0,0L139.3,141.5z
	 M18,100.2c-1.4-0.8-1.9-2.7-1.1-4.1L64,16.3c0.8-1.4,2.7-1.9,4.1-1.1L79.6,22l-50.1,85L18,100.2z M71.5,128.3
	c-0.8,1.4-2.7,1.9-4.1,1.1l-30.1-17.8l50.1-85l30.1,17.8c1.4,0.8,1.9,2.7,1.1,4.1L100,79.8h-8.8L71.3,94.2c-0.4,0.3-0.9,0.6-1.2,0.9
	l0,0l0,0c-1.4,1.3-2.4,3.2-2.4,5.3c0,4,3.2,7.2,7.2,7.2c1.5,0,3-0.5,4.1-1.3l0,0l0.1-0.1c0.2-0.1,0.4-0.3,0.5-0.4l9.7-7.8
	L71.5,128.3z"/>
<path class="st1" d="M49.2,5.9L2.2,85.8c-3.4,5.7-1.4,13.1,4.2,16.4l49.4,29.1c5.7,3.4,13.1,1.4,16.4-4.2l47.1-79.8
	c3.4-5.7,1.4-13.1-4.2-16.4L65.7,1.7C60-1.7,52.6,0.3,49.2,5.9z M9.9,90.3L57,10.5c0.8-1.4,2.7-1.9,4.1-1.1l11.5,6.8l-50.1,85
	L11,94.5C9.6,93.6,9.1,91.7,9.9,90.3z M111.5,42.7l-47.1,79.8c-0.8,1.4-2.7,1.9-4.1,1.1l-30.1-17.8l50.1-85l30.1,17.8
	C111.9,39.4,112.4,41.3,111.5,42.7z"/>
<path class="st2" d="M135.3,48.3c8.1,0,14.8,6.6,14.8,14.8s-6.6,14.8-14.8,14.8s-14.8-6.6-14.8-14.8S127.1,48.3,135.3,48.3z
	 M81.9,133.8l-7.1,17.9L52,166.5c-2.2,1.2-3.6,3.6-3.6,6.2c0,4,3.2,7.2,7.2,7.2c1.5,0,3-0.5,4.1-1.3c3.8-2.4,22.4-14.1,25.5-15.9
	c3.5-2,4.1-5.1,4.1-5.1l4.9-16c0,0,0,0-5.8-2.6S81.9,133.8,81.9,133.8z M132.1,135.7c0,0-1.2-3.8-4.6-5.2s-18.1-7.8-18.1-7.8
	l15.4-25.6c0,0,3.8-9-0.3-13.4S110.8,74,110.8,74H84L64.1,88.4c-0.4,0.3-0.9,0.6-1.2,0.9l0,0l0,0c-1.4,1.3-2.4,3.2-2.4,5.3
	c0,4,3.2,7.2,7.2,7.2c1.5,0,3-0.5,4.1-1.3l0,0l0.1-0.1c0.2-0.1,0.4-0.3,0.5-0.4l14.7-11.9H103l-14.8,26.2c0,0-5.1,9.2-0.3,14.2
	c4.2,4.4,12.7,6.9,12.7,6.9l17.3,6.5l5.1,31.3l0,0c0.5,3.4,3.5,6,7.1,6c4,0,7.2-3.2,7.2-7.2c0-0.2,0-0.4,0-0.6l0,0L132.1,135.7z"/>
</svg>
