<?xml version="1.0" encoding="utf-8"?>
<!-- Generator: Adobe Illustrator 21.0.0, SVG Export Plug-In . SVG Version: 6.00 Build 0)  -->
<svg version="1.1" id="Layer_1" xmlns="http://www.w3.org/2000/svg" xmlns:xlink="http://www.w3.org/1999/xlink" x="0px" y="0px"
	 viewBox="0 0 171 195" style="enable-background:new 0 0 171 195;" xml:space="preserve">
<style type="text/css">
	.st0{fill:#FFFFFF;}
	.st1{fill:#F0C42E;}
	.st2{fill:#3A3A3A;}
</style>
<path class="st0" d="M77.7,174.6c-0.1-0.1-10.5-13-12.6-15.8c-1.3-1.7-3.3-2.7-5.6-2.7c-2.6,0-4.8,1.2-5.5,1.6l-5.5,2.7
	c-1.8-0.5-5.6-1.9-9.3-6.3c-3.3-3.8-3.3-9-3.1-11.1l5.9-5.9c3.1-2.7,2.5-6.5,1.2-8.4l-0.2-0.3c0,0-12.9-16.2-14.7-18.5
	c-1-1.2-2.5-1.9-4.2-1.9c-2.8,0-5.9,2-6.8,2.6C6.6,118.4,5.9,125.2,5.8,126l0,0.4l0.1,0.4c6.4,35.7,26,51.1,35.5,58.5
	c1.1,0.9,2.1,1.7,2.9,2.3c6.6,5.7,13.8,6.4,16.6,6.4c2.4,0,4.5-0.4,6.1-1.2c4.4-2.1,9.4-8,10.9-9.8c2.5-3.1,1.3-6.6,0.2-8.2
	L77.7,174.6z M63.8,186.5c-0.5,0.2-1.6,0.5-3.1,0.5c-1.6,0-7-0.3-11.9-4.6c-0.9-0.7-1.9-1.6-3.1-2.5c-8.7-6.8-26.7-21-32.8-53.7
	c0.3-1,1.8-4.9,8.6-9.8c0.7-0.5,1.5-0.9,2.1-1.1c2.8,3.6,11.4,14.4,13.5,17l-7.5,7.5l-0.2,1.1c-0.1,0.4-1.9,10.4,4.5,17.9
	c6.3,7.3,13.3,8.7,14.6,8.9l1.1,0.2l7.6-3.8l0.2-0.1c0.3-0.2,1.3-0.6,2.1-0.6c0,0,0.1,0,0.1,0c2.1,2.8,11.1,13.9,12.5,15.6
	c0,0,0,0,0,0C69.5,181.9,65.9,185.5,63.8,186.5z M137.9,65.8c5.5-5.2,7.2-12,5-20.8c-0.2-0.9-0.8-1.5-1.7-1.8
	c-0.8-0.3-1.8-0.1-2.4,0.5l-8.2,7.4c-1.4-0.8-3.7-2.5-4.5-5.3l6.8-6.7c0.9-0.9,1-2.5,0.1-3.4l-0.2-0.2c-0.2-0.2-0.4-0.4-0.7-0.5
	c-0.2-0.1-4-2.1-8.8-2.1c-4.7,0-8.9,1.9-12,5.6c-6,6.9-4.6,15-3.5,18.5l-3.5,3.5L94,51.1l4.7-3.3l-20-13.7L68.1,44.7l13.7,20
	l3.3-4.7l9.2,10.3L91,73.6c-1.5-0.5-3.9-1.1-6.7-1.1c-5.4,0-10.2,2.2-14,6.4c-0.3,0.3-6.6,8.2-2.8,18.6c0.3,0.8,0.9,1.4,1.7,1.6
	c0.8,0.2,1.6,0,2.3-0.5l8.3-7.3c1.3,0.6,3.6,2.1,4.7,5.9l-7.4,7.5c-0.6,0.6-0.9,1.6-0.6,2.4s1,1.5,1.8,1.7c0.1,0,2.7,0.6,6.2,0.6
	c6.8,0,12.1-2.3,15.2-6.6c3.4-4.6,4.1-9.4,4-13.1l16.2,16.2l0.2,0.2c1.5,1.3,4.3,2.7,7.5,2.7c2.2,0,4.6-0.7,6.9-2.8l5.5-5.5l0.1-0.1
	c5-5.4,2.3-11.7,0.1-14.3l-16.9-17c1,0.1,2.1,0.2,3.3,0.2C131.5,69.5,135.3,68.2,137.9,65.8z M84.6,52l-2.7,3.9l-7.3-10.6l4.7-4.7
	l10.6,7.3l-3.9,2.7l14.8,13.3L96.6,68l1.2-1.2L84.6,52z M98.1,85.5c0.1,0.3,2.6,7.7-2.3,14.5c-2.8,3.8-7.7,4.5-11.4,4.5l4.7-4.8
	c0.6-0.6,0.8-1.4,0.7-2.2C88,87.4,80,86.1,79.7,86c-0.7-0.1-1.5,0.1-2,0.6L71.5,92c-0.5-5.6,2.4-9.5,2.8-9.9c2.7-3,6.1-4.6,10.1-4.6
	c3.5,0,6.2,1.2,6.2,1.2c1,0.4,2.1,0.2,2.8-0.5l19-19c0.7-0.7,0.9-1.8,0.5-2.8c0-0.1-3.5-8.3,2.2-14.9c2.2-2.5,5-3.8,8.2-3.8
	c1.2,0,2.4,0.2,3.4,0.4l-5,5c-0.6,0.5-0.8,1.3-0.7,2.1c1,8.3,9,11.1,9.3,11.2c0.9,0.3,1.8,0.1,2.5-0.5l6-5.4c0.4,4.9-1,8.6-4.3,11.6
	c-2,1.9-5.4,2.3-7.8,2.3c-3.7,0-7-0.9-7-0.9c-0.9-0.2-1.8,0-2.4,0.7L98.7,82.9C98,83.6,97.8,84.6,98.1,85.5z M103.6,87.3
	C103.6,87.3,103.6,87.3,103.6,87.3C103.6,87.3,103.6,87.3,103.6,87.3z M103.4,86.2c0,0.1,0,0.1,0,0.2
	C103.5,86.3,103.4,86.3,103.4,86.2z M136.5,97.1l-5.5,5.5c-3.2,3-6.9,0.4-7.6-0.1l-18.6-18.6l14.9-15.1l-2,2.1l18.7,18.7
	C136.9,90.1,139.5,93.8,136.5,97.1z M121.3,69C121.3,69,121.3,69,121.3,69C121.3,69,121.3,69,121.3,69z M120.5,68.9
	C120.5,68.9,120.5,68.9,120.5,68.9C120.5,68.9,120.5,68.9,120.5,68.9z M104.2,6C67.8,6,38.2,35.5,38.2,71.9
	c0,33.5,25,61.2,57.4,65.4v26.2c0,0,57.4-21.2,72-73.6c0.1-0.3,0.1-0.5,0.2-0.8c0.1-0.4,0.2-0.8,0.3-1.3c0.1-0.3,0.1-0.5,0.2-0.8
	c1.1-4.9,1.8-9.9,1.8-15.1C170.1,35.5,140.6,6,104.2,6z M161.5,85.4L161.5,85.4L161.5,85.4l0,0.2c0,0.2-0.1,0.3-0.1,0.5
	c-0.1,0.4-0.2,0.8-0.3,1.2l-0.1,0.4c0,0.1-0.1,0.2-0.1,0.3c-5.6,20.1-18.5,37.7-38.5,52.4c-7.4,5.4-14.4,9.5-19.7,12.2v-15.3v-6.2
	l-6.1-0.8c-29.2-3.8-51.3-28.9-51.3-58.4c0-32.5,26.4-58.9,58.9-58.9c32.5,0,58.9,26.4,58.9,58.9C163.1,76.4,162.6,81,161.5,85.4z"
	/>
<path class="st1" d="M78.4,103.5c-3.5,0-6.1-0.6-6.2-0.6c-0.9-0.2-1.6-0.9-1.8-1.7s0-1.8,0.6-2.4l7.4-7.5c-1-3.8-3.3-5.4-4.7-5.9
	l-8.3,7.3c-0.6,0.5-1.5,0.7-2.3,0.5c-0.8-0.2-1.4-0.8-1.7-1.6c-3.8-10.5,2.5-18.3,2.8-18.6c3.7-4.2,8.5-6.4,14-6.4
	c2.8,0,5.2,0.6,6.7,1.1l16.8-16.8c-1-3.4-2.5-11.5,3.5-18.5c3.1-3.6,7.3-5.6,12-5.6c4.8,0,8.7,2,8.8,2.1c0.3,0.1,0.5,0.3,0.7,0.5
	l0.2,0.2c0.9,1,0.8,2.5-0.1,3.4l-6.8,6.7c0.8,2.9,3,4.5,4.5,5.3l8.2-7.4c0.7-0.6,1.6-0.8,2.4-0.5c0.8,0.3,1.5,0.9,1.7,1.8
	c2.1,8.8,0.5,15.6-5,20.8c-2.6,2.4-6.4,3.6-11.2,3.6c-2.8,0-5.3-0.4-6.8-0.7L97.1,79.4c0.7,3.2,1.6,10.6-3.4,17.6
	C90.6,101.3,85.3,103.5,78.4,103.5z M78.2,98.5c3.7,0,8.6-0.7,11.4-4.5c4.9-6.8,2.4-14.2,2.3-14.5c-0.3-0.9-0.1-1.9,0.6-2.6
	l18.5-18.7c0.6-0.6,1.6-0.9,2.4-0.7c0,0,3.3,0.9,7,0.9c2.5,0,5.8-0.4,7.8-2.3c3.3-3.1,4.7-6.8,4.3-11.6l-6,5.4
	c-0.7,0.6-1.6,0.8-2.5,0.5c-0.3-0.1-8.3-2.9-9.3-11.2c-0.1-0.8,0.2-1.5,0.7-2.1l5-5c-1-0.2-2.1-0.4-3.4-0.4c-3.3,0-6,1.3-8.2,3.8
	c-5.7,6.5-2.2,14.8-2.2,14.9c0.4,0.9,0.2,2-0.5,2.8l-19,19c-0.7,0.7-1.9,0.9-2.8,0.5c0,0-2.7-1.2-6.3-1.2c-4,0-7.4,1.5-10.1,4.6
	c-0.3,0.4-3.3,4.4-2.8,9.9l6.2-5.4c0.6-0.5,1.3-0.7,2-0.6c0.3,0.1,8.3,1.4,10.1,11.5c0.1,0.8-0.1,1.6-0.7,2.2L78.2,98.5z"/>
<path class="st2" d="M54.6,188c-2.8,0-10-0.6-16.6-6.4c-0.7-0.6-1.7-1.4-2.9-2.3c-9.4-7.4-29-22.8-35.5-58.5l-0.1-0.4l0-0.4
	c0-0.8,0.7-7.6,11.6-15.3c0.9-0.6,3.9-2.6,6.8-2.6c1.7,0,3.2,0.7,4.2,1.9c1.8,2.3,14.7,18.5,14.7,18.5l0.2,0.3
	c1.2,1.9,1.8,5.7-1.2,8.4l-5.9,5.9c-0.2,2.1-0.2,7.3,3.1,11.1c3.7,4.3,7.5,5.8,9.3,6.3l5.5-2.7c0.7-0.4,3-1.6,5.5-1.6
	c2.3,0,4.3,1,5.6,2.7c2.1,2.8,12.5,15.6,12.6,15.8l0.2,0.2c1.1,1.6,2.3,5.1-0.2,8.2c-1.4,1.8-6.5,7.7-10.9,9.8
	C59.1,187.6,57,188,54.6,188z M6.7,120.1c6.1,32.7,24.1,46.9,32.8,53.7c1.2,1,2.3,1.8,3.1,2.5c4.9,4.3,10.4,4.6,11.9,4.6
	c1.5,0,2.6-0.3,3.1-0.5c2.1-1,5.7-4.6,8.3-7.7c0,0,0,0,0,0c-1.4-1.7-10.4-12.8-12.5-15.6c0,0-0.1,0-0.1,0c-0.7,0-1.8,0.5-2.1,0.6
	l-0.2,0.1l-7.6,3.8l-1.1-0.2c-1.3-0.2-8.3-1.5-14.6-8.9c-6.4-7.5-4.6-17.5-4.5-17.9l0.2-1.1l7.5-7.5c-2.1-2.6-10.7-13.5-13.5-17
	c-0.6,0.2-1.5,0.7-2.1,1.1C8.5,115.2,7,119.2,6.7,120.1z M78.9,54l9.2,10.3l3.5-3.5L78.4,46l-2.7,3.9l-7.3-10.6l4.7-4.7l10.6,7.3
	l-4,2.7l14.8,13.3l3.5-3.5l-10.3-9.2l4.7-3.3l-20-13.7L61.9,38.7l13.7,20L78.9,54z M117.1,63.3c-1.4-0.1-2.6-0.4-3.5-0.5l-2,2.1
	l18.7,18.7c0.5,0.6,3.1,4.3,0.1,7.6l-5.5,5.5c-3.2,3-6.9,0.4-7.6-0.1L98.7,77.8l-1.6,1.6c0.2,1.1,0.5,2.6,0.6,4.5l16.2,16.2l0.2,0.2
	c1.5,1.3,4.3,2.7,7.4,2.7c2.2,0,4.6-0.7,6.9-2.8l5.5-5.5l0.1-0.1c5-5.4,2.3-11.7,0.1-14.3L117.1,63.3z M98,7
	c32.5,0,58.9,26.4,58.9,58.9c0,4.5-0.5,9.1-1.6,13.5l0,0l0,0l0,0.1c0,0.2-0.1,0.3-0.1,0.5c-0.1,0.4-0.2,0.8-0.3,1.2l-0.1,0.4
	c0,0.1-0.1,0.2-0.1,0.3c-5.6,20.1-18.5,37.7-38.5,52.4c-7.4,5.4-14.4,9.5-19.7,12.2v-15.3v-6.2l-6.1-0.8
	c-29.2-3.8-51.3-28.9-51.3-58.4C39.1,33.4,65.5,7,98,7 M98,0C61.6,0,32.1,29.5,32.1,65.9c0,33.5,25,61.2,57.4,65.4v26.2
	c0,0,57.4-21.2,72-73.6c0.1-0.3,0.1-0.5,0.2-0.8c0.1-0.4,0.2-0.8,0.3-1.3c0.1-0.3,0.1-0.5,0.2-0.8c1.1-4.9,1.8-9.9,1.8-15.1
	C163.9,29.5,134.4,0,98,0L98,0z"/>
</svg>
