<?xml version="1.0" encoding="utf-8"?>
<!-- Generator: Adobe Illustrator 21.0.0, SVG Export Plug-In . SVG Version: 6.00 Build 0)  -->
<svg version="1.1" id="Слой_1" xmlns="http://www.w3.org/2000/svg" xmlns:xlink="http://www.w3.org/1999/xlink" x="0px" y="0px"
	 viewBox="0 0 32 32" style="enable-background:new 0 0 32 32;" xml:space="preserve">
<style type="text/css">
	.st0{fill:#FFFFFF;}
</style>
<path class="st0" d="M16,0C7.2,0,0,7.2,0,16c0,8.8,7.2,16,16,16c8.8,0,16-7.2,16-16C32,7.2,24.8,0,16,0z M23.9,12.8
	c-0.3,6.5-3.5,10.8-11,10.7c-0.1,0-0.2,0-0.2,0c0,0,0,0,0,0c0,0-0.1,0-0.2,0c-0.4,0-4.5-0.4-5.3-1.8c2.5,0.2,4.2-0.4,5.1-1.1
	c-1-0.3-2.9-0.5-3.3-2.8c0.4,0.1,0.6,0.2,1.3,0.1C9,17,7.5,16.3,7.6,14.2c0.3,0.3,1.2,0.5,1.5,0.5c-0.8-0.2-2.1-3.2-1-4.8
	c2,1.8,4.1,3.5,7.8,3.6c0.2-2.2,1.2-3.7,3.2-4.3c1.8-0.5,3.3,0.3,3.9,1.1c0.7-0.2,1.5-0.5,2.2-0.7c0,0.8-0.6,1.5-0.9,1.7
	c0.7,0.2,1.4-0.5,1.4-0.5C25.5,11.8,24.6,12.6,23.9,12.8z"/>
</svg>
